<?xml version="1.0" standalone="no"?>
<!DOCTYPE svg PUBLIC "-//W3C//DTD SVG 20010904//EN"
 "http://www.w3.org/TR/2001/REC-SVG-20010904/DTD/svg10.dtd">
<svg version="1.0" xmlns="http://www.w3.org/2000/svg"
 width="16.000000pt" height="16.000000pt" viewBox="0 0 16.000000 16.000000"
 preserveAspectRatio="xMidYMid meet">
<metadata>
Created by potrace 1.11, written by Peter Selinger 2001-2013
</metadata>
<g transform="translate(0.000000,16.000000) scale(0.002198,-0.002198)"
fill="#000000" stroke="none">
<path d="M5893 6893 c-147 -191 -273 -354 -279 -362 -9 -12 -21 -7 -70 30
-484 369 -1065 557 -1779 576 -603 16 -1110 -85 -1570 -312 -546 -269 -988
-724 -1275 -1310 -185 -379 -296 -781 -356 -1290 -22 -189 -30 -747 -15 -971
62 -875 314 -1558 780 -2113 34 -40 60 -77 59 -82 -2 -4 -113 -151 -248 -325
-135 -174 -248 -322 -252 -329 -5 -8 71 -72 225 -189 128 -97 238 -176 243
-175 5 0 115 139 244 309 129 170 239 310 243 310 4 0 34 -17 65 -38 379 -254
866 -415 1392 -463 189 -17 582 -14 763 6 737 79 1317 348 1782 826 325 334
557 720 713 1184 128 381 192 756 213 1258 44 1045 -196 1943 -695 2597 -31
41 -55 79 -52 85 2 7 140 189 305 405 166 216 300 394 299 395 -8 6 -445 312
-455 318 -7 5 -108 -118 -280 -340z m-1813 -573 c375 -66 702 -217 969 -447
l34 -30 -1557 -2019 c-857 -1110 -1566 -2027 -1575 -2037 -17 -17 -20 -14 -73
65 -248 369 -387 795 -450 1368 -16 151 -16 689 0 840 50 455 134 770 292
1095 120 245 248 424 439 616 279 279 603 453 993 533 190 39 263 45 543 42
215 -3 282 -7 385 -26z m1505 -1150 c204 -408 299 -840 312 -1425 15 -670 -92
-1209 -329 -1665 -332 -639 -858 -1021 -1553 -1126 -167 -26 -552 -26 -715 -1
-242 38 -449 101 -640 196 -123 61 -303 177 -298 191 2 5 700 918 1552 2029
l1549 2021 35 -57 c19 -32 58 -105 87 -163z"/>
</g>
</svg>
